<svg version="1.2" xmlns="http://www.w3.org/2000/svg" viewBox="0 0 24 24" width="24" height="24">
	<title>untitled-svg</title>
	<style>
		.s0 { fill: #ffffff } 
	</style>
	<g id="Layer">
		<path id="svg_1" fill-rule="evenodd" class="s0" d="m16.8 1.8c0.4 0.4 0.4 1 0 1.4l-1.7 1.6c0 0-2.2 2-3.2 3-1.4 1.2-2.1 1-2.4 1.2-0.2 0.3 0.2 0.8-1.7 2.6-0.8 0.7-1.5 1.3-1.5 1.3l-1.4 1.4-1.9 1.7c-0.2 0.1-0.4 0.2-0.7 0.2-0.3 0-0.5-0.1-0.8-0.2-0.4-0.4-0.4-1 0-1.4l1.8-1.6 1.4-1.3 0.7-0.7 1.7-1.5c0.4-0.4 0.4-1 0-1.4-0.2-0.2-0.4-0.3-0.7-0.3-0.3 0-0.5 0.1-0.7 0.3l-1.7 1.5-1.1 1c-0.1 0.2-0.4 0.3-0.6 0.3-0.3 0-0.6-0.1-0.8-0.3-0.4-0.4-0.4-1 0-1.3l1.8-1.7c1.6-1.4 2.6-1.2 2.9-1.4 0.2-0.3-0.4-0.9 1.5-2.7l1.8-1.7q0.3-0.2 0.7-0.2c0.3 0 0.6 0.1 0.8 0.2 0.3 0.4 0.4 0.9 0 1.3l-2.8 2.5c-0.3 0.4-0.3 1 0 1.4 0.3 0.2 0.5 0.3 0.8 0.3 0.3 0 0.5-0.1 0.7-0.3l1.7-1.6 2.1-1.9 1.8-1.7c0.2-0.1 0.4-0.2 0.7-0.2 0.3 0 0.6 0.1 0.8 0.2zm5.7 3.7h-4v-3.7h4zm-17.1 15.8h-4v-3.6h4zm0-15.8h-4v-3.7h4zm-2.6-2.5v1.3h1.3v-1.3zm17 0v1.3h1.3v-1.3zm-2.2 3.4c0.4 0.4 0.4 0.9 0 1.3-0.1 0.1-1.8 1.7-3.8 3.6-0.3 0.1-0.5 0.2-0.8 0.2q-0.4 0-0.7-0.2c-0.5-0.4-0.5-1-0.1-1.3 2.1-1.9 3.8-3.6 3.9-3.6 0.2-0.2 0.4-0.3 0.7-0.3 0.2 0 0.5 0.1 0.8 0.3zm4.9 0.6c0.3 0.4 0.3 1 0 1.4l-1.9 1.7-2 1.9-1.7 1.6c-0.4 0.3-0.4 1 0 1.3 0.2 0.2 0.4 0.3 0.7 0.3 0.2 0 0.5-0.1 0.7-0.3l2.7-2.5c0.2-0.2 0.4-0.3 0.7-0.3 0.2 0 0.5 0.2 0.7 0.3 0.4 0.4 0.4 1 0 1.4l-1.8 1.6c-1.9 1.8-2.6 1.2-2.9 1.5-0.2 0.2 0.1 1.2-1.5 2.6l-1.8 1.7c-0.2 0.1-0.5 0.3-0.8 0.3-0.2 0-0.5-0.2-0.7-0.3-0.4-0.4-0.4-0.9 0-1.3l1.1-1 1.7-1.5c0.4-0.4 0.4-1 0-1.4-0.2-0.1-0.5-0.2-0.8-0.2-0.2 0-0.5 0-0.7 0.2l-1.7 1.6-0.7 0.6-1.4 1.4-1.8 1.6c-0.2 0.2-0.4 0.3-0.7 0.3-0.3 0-0.5-0.2-0.7-0.3-0.4-0.4-0.4-1 0-1.4l1.8-1.6 1.4-1.4c0 0 0.7-0.6 1.5-1.4 1.9-1.7 2.5-1.4 2.7-1.6 0.2-0.2 0-0.9 1.4-2.1 1-1 3.2-3 3.2-3l1.7-1.6c0.3-0.2 0.5-0.3 0.8-0.3 0.2 0 0.5 0.1 0.8 0.2zm-10.8 4.9c0.3 0.4 0.3 0.9 0 1.3-2.1 1.9-3.9 3.6-4 3.7-0.3 0.2-0.5 0.3-0.8 0.3-0.2 0-0.5-0.1-0.7-0.3-0.4-0.4-0.4-0.9 0-1.3 0.1-0.1 1.9-1.8 4-3.7 0.2-0.2 0.5-0.3 0.7-0.3 0.3 0 0.5 0.1 0.8 0.3zm10.6 5c0.4 0.4 0.4 0.9 0 1.3-0.1 0.1-2.6 2.4-2.9 2.7q-0.3 0.2-0.7 0.2c-0.3 0-0.6-0.1-0.8-0.2-0.4-0.4-0.4-1 0-1.3 0.2-0.1 2.7-2.5 2.9-2.7 0.2-0.2 0.5-0.3 0.8-0.3 0.2 0 0.5 0.1 0.7 0.3zm-19.5 1.9v1.2h1.3v-1.2z"/>
	</g>
</svg>