<svg width="250" height="41" viewBox="0 0 250 41" fill="none" xmlns="http://www.w3.org/2000/svg">
<g clip-path="url(#clip0)">
<g clip-path="url(#clip1)">
<path d="M61.5116 29.1782C60.4806 30.2922 59.0202 31.1674 57.216 31.804C55.4119 32.4406 53.2642 32.7588 51.0305 32.7588C48.625 32.7588 46.5631 32.2814 44.759 31.3266C42.9549 30.3718 41.5803 28.9395 40.6353 27.189C39.6903 25.3589 39.1748 23.2105 39.1748 20.7439V18.9934C39.1748 16.4472 39.6044 14.2988 40.5494 12.3892C41.4944 10.4795 42.7831 9.12682 44.5013 8.17199C46.2195 7.21716 48.2813 6.73975 50.6009 6.73975C53.8655 6.73975 56.3569 7.45587 58.247 8.88811C60.0511 10.3204 61.1679 12.3892 61.5116 15.1741H56.0133C55.7556 13.7418 55.2401 12.6279 54.381 11.9913C53.5219 11.3548 52.3191 10.9569 50.8587 10.9569C48.9686 10.9569 47.5081 11.5935 46.4772 12.9461C45.4463 14.2988 44.9308 16.288 44.9308 18.9138V20.5052C44.9308 23.131 45.4463 25.1998 46.5631 26.5524C47.68 27.9051 49.2264 28.6212 51.3741 28.6212C53.5219 28.6212 54.9824 28.2234 55.9274 27.3481V22.8923H50.7727V19.073H61.5116V29.1782Z" fill="#1D1652"/>
<path d="M73.4529 32.7588C70.446 32.7588 68.0405 31.8836 66.1505 30.2126C64.2604 28.5417 63.3154 26.2342 63.3154 23.4492V22.8923C63.3154 20.9826 63.745 19.3117 64.5182 17.7998C65.2914 16.288 66.4082 15.1741 67.8687 14.3784C69.3292 13.5827 70.9615 13.1848 72.8515 13.1848C75.6007 13.1848 77.8343 13.9805 79.3807 15.6515C81.013 17.2429 81.7862 19.5504 81.7862 22.574V24.6428H68.8996C69.0714 25.8363 69.5869 26.8707 70.446 27.5868C71.3051 28.303 72.422 28.7008 73.7965 28.7008C75.8584 28.7008 77.4907 27.9847 78.6934 26.632L81.3567 29.4169C80.5835 30.4513 79.4666 31.3266 78.0062 31.8836C76.7175 32.4405 75.1711 32.7588 73.4529 32.7588ZM72.8515 17.2429C71.7347 17.2429 70.8756 17.5611 70.1883 18.2773C69.501 18.9138 69.0714 19.9482 68.8996 21.1417H76.4598V20.7439C76.4598 19.6299 76.1161 18.7547 75.5147 18.1181C74.9134 17.4816 73.9684 17.2429 72.8515 17.2429Z" fill="#1D1652"/>
<path d="M88.8314 13.5031L89.0032 15.6515C90.4637 13.9805 92.4397 13.1053 94.8452 13.1053C96.9929 13.1053 98.6252 13.6623 99.6562 14.8558C100.687 16.0493 101.288 17.7998 101.288 20.1073V32.2814H95.8761V20.3461C95.8761 19.3117 95.6184 18.516 95.1029 18.0386C94.5874 17.5611 93.7283 17.3224 92.6115 17.3224C91.0651 17.3224 89.9483 17.959 89.1751 19.1525V32.4406H83.7627V13.5031H88.8314Z" fill="#1D1652"/>
<path d="M103.179 22.8127C103.179 20.9826 103.608 19.3117 104.381 17.7998C105.155 16.3676 106.271 15.1741 107.732 14.3784C109.192 13.5827 110.911 13.1848 112.801 13.1848C115.55 13.1848 117.783 13.9805 119.502 15.4923C121.22 17.0042 122.165 19.1525 122.423 21.8579V23.131C122.423 25.9955 121.564 28.303 119.845 30.0535C118.127 31.804 115.808 32.6793 112.801 32.6793C109.88 32.6793 107.56 31.804 105.756 30.0535C104.038 28.303 103.093 25.9159 103.093 22.9718V22.8127H103.179ZM108.591 23.131C108.591 24.8815 108.935 26.3137 109.708 27.2686C110.395 28.2234 111.512 28.7008 112.801 28.7008C114.089 28.7008 115.12 28.2234 115.893 27.2686C116.667 26.3137 117.01 24.8019 117.01 22.8127C117.01 21.0622 116.667 19.7095 115.893 18.7547C115.12 17.7998 114.089 17.3224 112.801 17.3224C111.512 17.3224 110.481 17.7998 109.708 18.7547C108.935 19.6299 108.591 21.1417 108.591 23.131Z" fill="#1D1652"/>
<path d="M124.398 32.361V7.05802H134.02C137.371 7.05802 139.862 7.61501 141.581 8.80854C143.299 10.0021 144.158 11.7526 144.158 13.9805C144.158 15.2536 143.814 16.288 143.127 17.2429C142.44 18.1977 141.495 18.9138 140.292 19.3117C141.666 19.6299 142.783 20.2665 143.642 21.3009C144.502 22.3353 144.845 23.5288 144.845 24.9611C144.845 27.4277 143.986 29.2578 142.354 30.5309C140.636 31.804 138.316 32.4406 135.137 32.4406H124.398V32.361ZM130.069 17.6407H134.278C137.113 17.5611 138.574 16.5267 138.574 14.4579C138.574 13.344 138.23 12.4687 137.457 11.9913C136.77 11.5139 135.567 11.1956 134.02 11.1956H130.069V17.6407ZM130.069 21.3805V28.2234H134.88C136.168 28.2234 137.285 27.9051 137.972 27.3481C138.746 26.7912 139.089 25.9159 139.089 24.8815C139.089 22.574 137.8 21.3805 135.223 21.3805H130.069Z" fill="#1D1652"/>
<path d="M158.677 32.361C158.419 31.8836 158.247 31.3266 158.161 30.69C156.873 32.0427 155.154 32.7588 153.007 32.7588C151.031 32.7588 149.398 32.2018 148.024 31.1674C146.735 30.133 146.048 28.7804 146.048 27.1094C146.048 25.1202 146.821 23.6084 148.453 22.4944C150.086 21.3804 152.319 20.903 155.412 20.903H157.904V19.7891C157.904 18.9138 157.646 18.1977 157.216 17.7203C156.701 17.1633 156.013 16.9246 154.897 16.9246C153.952 16.9246 153.264 17.1633 152.749 17.5611C152.233 17.959 151.976 18.516 151.976 19.2321H146.563C146.563 18.1181 146.907 17.1633 147.68 16.2085C148.367 15.2536 149.398 14.5375 150.773 14.0601C152.062 13.5031 153.608 13.2644 155.24 13.2644C157.732 13.2644 159.708 13.8214 161.168 15.0149C162.629 16.2085 163.402 17.7998 163.402 19.9482V28.1438C163.402 29.8943 163.66 31.247 164.175 32.2018V32.5201H158.677V32.361ZM154.209 28.8599C154.983 28.8599 155.756 28.7008 156.443 28.3825C157.13 28.0643 157.646 27.5868 157.989 27.0299V23.7675H155.928C153.178 23.7675 151.718 24.6428 151.546 26.3933V26.7116C151.546 27.3481 151.804 27.8255 152.233 28.2234C152.749 28.7008 153.35 28.8599 154.209 28.8599Z" fill="#1D1652"/>
<path d="M170.447 13.5031L170.618 15.6515C172.079 13.9805 174.055 13.1053 176.46 13.1053C178.608 13.1053 180.24 13.6623 181.271 14.8558C182.302 16.0493 182.904 17.7998 182.904 20.1073V32.2814H177.491V20.3461C177.491 19.3117 177.234 18.516 176.718 18.0386C176.203 17.5611 175.344 17.3224 174.227 17.3224C172.68 17.3224 171.564 17.959 170.79 19.1525V32.4406H165.378V13.5031H170.447Z" fill="#1D1652"/>
<path d="M192.095 24.8019L190.119 26.632V32.361H184.707V5.62578H190.119V20.4256L191.15 19.1525L196.391 13.5031H202.92L195.532 21.3805L203.521 32.361H197.25L192.095 24.8019Z" fill="#1D1652"/>
<path d="M204.553 29.8943C204.553 29.0987 204.81 28.4621 205.412 27.9051C206.013 27.4277 206.701 27.189 207.56 27.189C208.419 27.189 209.192 27.4277 209.793 27.9051C210.395 28.3825 210.652 29.0191 210.652 29.8943C210.652 30.69 210.395 31.3266 209.793 31.804C209.192 32.2814 208.505 32.5201 207.56 32.5201C206.701 32.5201 205.927 32.2814 205.326 31.804C204.896 31.3266 204.553 30.69 204.553 29.8943Z" fill="#1D1652"/>
<path d="M212.285 8.64941C212.285 7.93328 212.543 7.29673 213.144 6.81932C213.66 6.3419 214.433 6.1032 215.378 6.1032C216.323 6.1032 217.01 6.3419 217.612 6.81932C218.127 7.29673 218.471 7.93328 218.471 8.64941C218.471 9.4451 218.213 10.0816 217.612 10.5591C217.096 11.0365 216.323 11.2752 215.378 11.2752C214.433 11.2752 213.746 11.0365 213.144 10.5591C212.543 10.0816 212.285 9.4451 212.285 8.64941ZM218.041 32.361H212.629V13.5031H218.041V32.361Z" fill="#1D1652"/>
<path d="M219.931 22.8127C219.931 20.9826 220.36 19.3117 221.133 17.7998C221.907 16.3676 223.023 15.1741 224.484 14.3784C225.944 13.5827 227.663 13.1848 229.553 13.1848C232.302 13.1848 234.535 13.9805 236.254 15.4923C237.972 17.0042 238.917 19.1525 239.175 21.8579V23.131C239.175 25.9955 238.316 28.303 236.597 30.0535C234.879 31.804 232.56 32.6793 229.553 32.6793C226.632 32.6793 224.312 31.804 222.508 30.0535C220.79 28.303 219.845 25.9159 219.845 22.9718V22.8127H219.931ZM225.343 23.131C225.343 24.8815 225.687 26.3137 226.46 27.2686C227.147 28.2234 228.264 28.7008 229.553 28.7008C230.841 28.7008 231.872 28.2234 232.645 27.2686C233.419 26.3137 233.762 24.8019 233.762 22.8127C233.762 21.0622 233.419 19.7095 232.645 18.7547C231.872 17.7998 230.841 17.3224 229.553 17.3224C228.264 17.3224 227.233 17.7998 226.46 18.7547C225.687 19.6299 225.343 21.1417 225.343 23.131Z" fill="#1D1652"/>
<path d="M243.384 6.50104H241.838V10.5591H240.979V6.50104H239.433V5.86449H243.299V6.50104H243.384Z" fill="#1D1652"/>
<path d="M245.532 5.86449L246.992 9.4451L248.453 5.86449H249.57V10.4795H248.711V8.88811L248.797 6.89888L247.336 10.4795H246.735L245.274 6.89888L245.36 8.88811V10.4795H244.501V5.86449H245.532Z" fill="#1D1652"/>
<path d="M4.29553 5.22793V7.05802H2.31958V5.22793H4.29553ZM30.2405 5.22793V7.05802H28.2646V5.22793H30.2405ZM4.29553 29.2578V31.0879H2.31958V29.2578H4.29553ZM22.5086 3C22.079 3 21.7354 3.15914 21.3917 3.39785L18.6426 5.94406L15.4639 8.88811L12.8866 11.2752C12.5429 11.5935 12.1993 11.673 11.7698 11.673C11.3402 11.673 10.9966 11.5139 10.6529 11.2752C10.0515 10.7182 10.0515 9.76337 10.6529 9.20639L14.8625 5.3075C15.378 4.75052 15.2921 3.95483 14.7766 3.39785C14.5189 3.15914 14.0893 3 13.6598 3C13.2302 3 12.8866 3.15914 12.5429 3.39785L9.79381 5.94406C6.95876 8.6494 7.90377 9.60423 7.47422 10.0021C7.13058 10.3204 5.58419 10.0021 3.17869 12.1504L0.429547 14.6967C-0.171828 15.2536 -0.171828 16.2085 0.429547 16.7654C0.687278 17.0042 1.11683 17.1633 1.54638 17.1633C1.89003 17.1633 2.31958 17.0042 2.57731 16.7654L4.20962 15.2536L6.70102 12.9461C7.04467 12.6279 7.38831 12.5483 7.81786 12.5483C8.24742 12.5483 8.59106 12.7074 8.9347 12.9461C9.53607 13.5031 9.53607 14.4579 8.9347 15.0149L6.35738 17.402L5.32645 18.3568L3.09278 20.4256L0.429547 22.8923C-0.171828 23.4493 -0.171828 24.4041 0.429547 24.9611C0.8591 25.1202 1.20274 25.2793 1.6323 25.2793C2.06185 25.2793 2.40549 25.1202 2.74913 24.8815L5.49827 22.3353L7.73195 20.2665C7.73195 20.2665 8.76288 19.3117 9.96563 18.1977C12.8007 15.5719 12.1993 14.7762 12.6289 14.3784C13.0584 13.9805 14.0893 14.3784 16.1512 12.4687C17.7835 10.9569 21.0481 7.93328 21.0481 7.93328L23.7113 5.46664C24.3127 4.90966 24.3127 3.95483 23.7113 3.39785C23.3677 3.15914 22.9381 3 22.5086 3ZM6.27147 3.39785H0.257725V8.96768H6.27147V3.39785ZM32.3024 3.39785H26.2887V8.96768H32.3024V3.39785ZM23.7113 9.92251C23.2818 9.92251 22.9381 10.0816 22.5945 10.3204C22.5086 10.3999 19.8454 12.8666 16.7526 15.7311C16.1512 16.288 16.1512 17.1633 16.8385 17.7203C17.1821 17.959 17.5258 18.1181 17.9553 18.1181C18.3849 18.1181 18.7285 17.959 19.0722 17.7203C22.1649 14.8558 24.8282 12.3892 24.9141 12.3096C25.5155 11.7526 25.5155 10.8773 24.9141 10.3204C24.4845 10.0816 24.055 9.92251 23.7113 9.92251ZM31.0996 10.9569C30.6701 10.9569 30.3265 11.116 29.9828 11.3548L27.3196 13.8214C27.3196 13.8214 24.055 16.845 22.4227 18.3568C20.3608 20.2665 20.7045 21.3009 20.3608 21.6192C20.0172 21.9374 19.1581 21.3805 16.2371 24.0858C15.0344 25.1998 14.0034 26.1546 14.0034 26.1546L11.7698 28.2234L9.02061 30.7696C8.41924 31.3266 8.41924 32.2814 9.02061 32.8384C9.36425 33.0771 9.7079 33.2362 10.1374 33.2362C10.567 33.2362 10.9106 33.0771 11.2543 32.8384L13.9175 30.3718L16.1512 28.303L17.1821 27.3481L19.7594 24.9611C20.1031 24.6428 20.4467 24.5632 20.8763 24.5632C21.3058 24.5632 21.6495 24.7224 21.9931 24.9611C22.5945 25.518 22.5945 26.3933 21.9931 27.0299L19.5017 29.3374L17.7835 30.8492C17.1821 31.4062 17.1821 32.2814 17.7835 32.8384C18.1271 33.0771 18.4708 33.2362 18.9003 33.2362C19.3299 33.2362 19.6735 33.0771 20.0172 32.8384L22.7663 30.2922C25.1718 28.0643 24.7423 26.632 25.0859 26.3137C25.5155 25.9159 26.5464 26.7912 29.4673 24.0858L32.2165 21.5396C32.8179 20.9826 32.8179 20.0278 32.2165 19.4708C31.9588 19.2321 31.5292 19.073 31.0996 19.073C30.756 19.073 30.4124 19.1525 30.1546 19.3912L25.945 23.2901C25.6873 23.5288 25.2577 23.688 24.9141 23.688C24.4845 23.688 24.1409 23.5288 23.7972 23.2901C23.1959 22.7331 23.1959 21.7783 23.7972 21.2213L26.3746 18.8342L29.5533 15.8902L32.3024 13.344C32.9038 12.787 32.9038 11.8322 32.3024 11.2752C31.8728 11.116 31.5292 10.9569 31.0996 10.9569ZM14.6907 18.2773C14.3471 18.2773 13.9175 18.4364 13.6598 18.6751C10.4811 21.6192 7.73195 24.1654 7.56013 24.3245C6.95876 24.8815 6.95876 25.7568 7.56013 26.3137C7.81786 26.5524 8.24742 26.7116 8.67697 26.7116C9.10652 26.7116 9.45016 26.5524 9.79381 26.3137C9.96563 26.1546 12.7148 23.6084 15.8935 20.6643C16.4089 20.1074 16.4089 19.2321 15.8935 18.6751C15.4639 18.4364 15.1203 18.2773 14.6907 18.2773ZM30.9278 25.9159C30.4983 25.9159 30.1546 26.075 29.811 26.3137C29.5533 26.5524 25.6014 30.2126 25.4295 30.3718C24.8282 30.9287 24.8282 31.804 25.4295 32.361C25.6873 32.5997 26.1168 32.7588 26.5464 32.7588C26.9759 32.7588 27.3196 32.5997 27.6632 32.361C28.0928 31.9631 31.9588 28.4621 32.0447 28.303C32.646 27.746 32.646 26.8707 32.0447 26.3137C31.701 26.075 31.2715 25.9159 30.9278 25.9159ZM6.27147 27.4277H0.257725V32.9975H6.27147V27.4277Z" fill="url(#paint0_linear)"/>
</g>
</g>
<defs>
<linearGradient id="paint0_linear" x1="0.291128" y1="3.37022" x2="27.4149" y2="32.6562" gradientUnits="userSpaceOnUse">
<stop offset="0.078256" stop-color="#49BA80"/>
<stop offset="0.376" stop-color="#009ABB"/>
<stop offset="0.6865" stop-color="#344DA1"/>
<stop offset="0.9468" stop-color="#B03C96"/>
</linearGradient>
<clipPath id="clip0">
<rect width="250" height="30.2362" fill="white" transform="translate(0 3)"/>
</clipPath>
<clipPath id="clip1">
<rect width="249.57" height="30.2362" fill="white" transform="translate(0 3)"/>
</clipPath>
</defs>
</svg>