<?xml version="1.0" encoding="utf-8"?>
<!-- Generator: Adobe Illustrator 25.0.1, SVG Export Plug-In . SVG Version: 6.00 Build 0)  -->
<svg version="1.1" id="Layer_1" xmlns="http://www.w3.org/2000/svg" xmlns:xlink="http://www.w3.org/1999/xlink" x="0px" y="0px"
	 viewBox="0 0 18 16.5" style="enable-background:new 0 0 18 16.5;" xml:space="preserve">
<style type="text/css">
	.st0{fill:url(#SVGID_1_);}
</style>
<linearGradient id="SVGID_1_" gradientUnits="userSpaceOnUse" x1="1.9133" y1="37.6325" x2="14.8405" y2="23.6748" gradientTransform="matrix(1 0 0 -1 0 38.3653)">
	<stop  offset="7.825600e-02" style="stop-color:#49BA80"/>
	<stop  offset="0.376" style="stop-color:#009ABB"/>
	<stop  offset="0.6865" style="stop-color:#344DA1"/>
	<stop  offset="0.9468" style="stop-color:#B03C96"/>
</linearGradient>
<path class="st0" d="M3.2,2.2V3H2.3V2.2H3.2z M15.6,2.2V3h-0.9V2.2H15.6z M3.2,13.6v0.9H2.3v-0.9H3.2z M11.9,1.1
	c-0.2,0-0.4,0.1-0.5,0.2l-1.3,1.2L8.6,3.9L7.3,5C7.2,5.2,7,5.2,6.8,5.2C6.6,5.2,6.4,5.2,6.3,5C6,4.8,6,4.3,6.3,4.1l2-1.9
	c0.2-0.3,0.2-0.6,0-0.9C8.1,1.2,7.9,1.1,7.7,1.1c-0.2,0-0.4,0.1-0.5,0.2L5.9,2.5C4.5,3.8,5,4.2,4.8,4.4c-0.2,0.2-0.9,0-2,1L1.4,6.7
	c-0.3,0.3-0.3,0.7,0,1c0.1,0.1,0.3,0.2,0.5,0.2c0.2,0,0.4-0.1,0.5-0.2l0.8-0.7l1.2-1.1c0.2-0.2,0.3-0.2,0.5-0.2
	c0.2,0,0.4,0.1,0.5,0.2c0.3,0.3,0.3,0.7,0,1L4.2,8L3.7,8.4l-1.1,1l-1.3,1.2c-0.3,0.3-0.3,0.7,0,1c0.2,0.1,0.4,0.2,0.6,0.2
	c0.2,0,0.4-0.1,0.5-0.2l1.3-1.2l1.1-1c0,0,0.5-0.5,1.1-1C7.3,7.1,7,6.7,7.2,6.5c0.2-0.2,0.7,0,1.7-0.9c0.8-0.7,2.3-2.2,2.3-2.2
	l1.3-1.2c0.3-0.3,0.3-0.7,0-1C12.3,1.2,12.1,1.1,11.9,1.1z M4.2,1.3H1.3v2.7h2.9V1.3z M16.6,1.3h-2.9v2.7h2.9V1.3z M12.5,4.4
	c-0.2,0-0.4,0.1-0.5,0.2c0,0-1.3,1.2-2.8,2.6c-0.3,0.3-0.3,0.7,0,0.9c0.2,0.1,0.3,0.2,0.5,0.2c0.2,0,0.4-0.1,0.5-0.2
	c1.5-1.4,2.7-2.5,2.8-2.6c0.3-0.3,0.3-0.7,0-0.9C12.9,4.5,12.7,4.4,12.5,4.4z M16,4.9c-0.2,0-0.4,0.1-0.5,0.2l-1.3,1.2
	c0,0-1.6,1.4-2.3,2.2c-1,0.9-0.8,1.4-1,1.6c-0.2,0.2-0.6-0.1-2,1.2c-0.6,0.5-1.1,1-1.1,1l-1.1,1l-1.3,1.2c-0.3,0.3-0.3,0.7,0,1
	c0.2,0.1,0.3,0.2,0.5,0.2c0.2,0,0.4-0.1,0.5-0.2l1.3-1.2l1.1-1l0.5-0.5l1.2-1.1c0.2-0.2,0.3-0.2,0.5-0.2c0.2,0,0.4,0.1,0.5,0.2
	c0.3,0.3,0.3,0.7,0,1l-1.2,1.1l-0.8,0.7c-0.3,0.3-0.3,0.7,0,0.9c0.2,0.1,0.3,0.2,0.5,0.2c0.2,0,0.4-0.1,0.5-0.2l1.3-1.2
	c1.1-1.1,0.9-1.7,1.1-1.9c0.2-0.2,0.7,0.2,2.1-1.1l1.3-1.2c0.3-0.3,0.3-0.7,0-1c-0.1-0.1-0.3-0.2-0.5-0.2c-0.2,0-0.3,0-0.5,0.2
	l-2,1.9c-0.1,0.1-0.3,0.2-0.5,0.2c-0.2,0-0.4-0.1-0.5-0.2c-0.3-0.3-0.3-0.7,0-1l1.2-1.1l1.5-1.4L16.6,6c0.3-0.3,0.3-0.7,0-1
	C16.4,5,16.2,4.9,16,4.9z M8.2,8.4C8,8.4,7.8,8.5,7.7,8.6c-1.5,1.4-2.8,2.6-2.9,2.7c-0.3,0.3-0.3,0.7,0,0.9c0.1,0.1,0.3,0.2,0.5,0.2
	c0.2,0,0.4-0.1,0.5-0.2c0.1-0.1,1.4-1.3,2.9-2.7C9,9.3,9,8.8,8.8,8.6C8.6,8.5,8.4,8.4,8.2,8.4z M15.9,12c-0.2,0-0.4,0.1-0.5,0.2
	c-0.1,0.1-2,1.9-2.1,1.9c-0.3,0.3-0.3,0.7,0,0.9c0.1,0.1,0.3,0.2,0.5,0.2c0.2,0,0.4-0.1,0.5-0.2c0.2-0.2,2-1.9,2.1-1.9
	c0.3-0.3,0.3-0.7,0-0.9C16.3,12.1,16.1,12,15.9,12z M4.2,12.7H1.3v2.7h2.9V12.7z"/>
</svg>
