<svg width="164" height="36" viewBox="0 0 164 36" fill="none" xmlns="http://www.w3.org/2000/svg">
<path d="M40.4318 25.7012C39.7544 26.4332 38.7948 27.0083 37.6093 27.4266C36.4239 27.8449 35.0127 28.054 33.5449 28.054C31.9644 28.054 30.6095 27.7403 29.4241 27.1129C28.2387 26.4855 27.3355 25.5444 26.7145 24.3942C26.0936 23.1917 25.7549 21.78 25.7549 20.1593V19.0091C25.7549 17.336 26.0372 15.9244 26.6581 14.6696C27.279 13.4148 28.1258 12.526 29.2548 11.8986C30.3838 11.2712 31.7385 10.9575 33.2627 10.9575C35.4078 10.9575 37.0448 11.4281 38.2867 12.3692C39.4722 13.3103 40.206 14.6696 40.4318 16.4995H36.819C36.6497 15.5584 36.311 14.8265 35.7465 14.4082C35.182 13.9899 34.3917 13.7285 33.4321 13.7285C32.1901 13.7285 31.2305 14.1468 30.5531 15.0355C29.8757 15.9244 29.537 17.2314 29.537 18.9568V20.0024C29.537 21.7278 29.8757 23.0871 30.6095 23.9759C31.3434 24.8647 32.3595 25.3352 33.7707 25.3352C35.182 25.3352 36.1416 25.0739 36.7626 24.4987V21.5709H33.3756V19.0614H40.4318V25.7012Z" fill="white"/>
<path d="M48.2783 28.0539C46.3025 28.0539 44.7219 27.4789 43.4801 26.3809C42.2381 25.283 41.6172 23.7668 41.6172 21.9368V21.5709C41.6172 20.3161 41.8995 19.2182 42.4075 18.2248C42.9156 17.2314 43.6494 16.4995 44.609 15.9767C45.5687 15.4538 46.6412 15.1924 47.8831 15.1924C49.6895 15.1924 51.1572 15.7152 52.1733 16.8132C53.2458 17.8589 53.7539 19.3751 53.7539 21.3618V22.7211H45.2864C45.3993 23.5054 45.738 24.185 46.3025 24.6556C46.867 25.1262 47.6009 25.3875 48.504 25.3875C49.8589 25.3875 50.9314 24.917 51.7217 24.0282L53.4716 25.8581C52.9636 26.5377 52.2297 27.1129 51.2701 27.4789C50.4234 27.8448 49.4073 28.0539 48.2783 28.0539ZM47.8831 17.8589C47.1493 17.8589 46.5848 18.0679 46.1332 18.5385C45.6816 18.9568 45.3993 19.6364 45.2864 20.4207H50.254V20.1593C50.254 19.4273 50.0282 18.8522 49.633 18.4339C49.2379 18.0157 48.617 17.8589 47.8831 17.8589Z" fill="white"/>
<path d="M58.3832 15.4015L58.4961 16.8132C59.4558 15.7152 60.7542 15.1401 62.3348 15.1401C63.7459 15.1401 64.8185 15.5061 65.4959 16.2903C66.1732 17.0746 66.5681 18.2248 66.5681 19.741V27.7402H63.0121V19.8979C63.0121 19.2182 62.8428 18.6954 62.5041 18.3817C62.1654 18.0679 61.6009 17.9111 60.867 17.9111C59.8509 17.9111 59.1171 18.3294 58.6091 19.1136V27.8449H55.0527V15.4015H58.3832Z" fill="white"/>
<path d="M67.8104 21.5186C67.8104 20.3161 68.0923 19.2182 68.6002 18.2248C69.1088 17.2837 69.8421 16.4995 70.8021 15.9767C71.7614 15.4538 72.8909 15.1924 74.1328 15.1924C75.9391 15.1924 77.4063 15.7152 78.5358 16.7086C79.6647 17.702 80.2856 19.1136 80.4551 20.8912V21.7278C80.4551 23.61 79.8907 25.1262 78.7612 26.2764C77.6324 27.4266 76.1086 28.0017 74.1328 28.0017C72.2135 28.0017 70.6891 27.4266 69.5037 26.2764C68.3748 25.1262 67.7539 23.5577 67.7539 21.6232V21.5186H67.8104ZM71.3665 21.7278C71.3665 22.878 71.5925 23.819 72.1004 24.4465C72.5519 25.0739 73.2858 25.3875 74.1328 25.3875C74.9791 25.3875 75.6565 25.0739 76.1644 24.4465C76.673 23.819 76.8984 22.8257 76.8984 21.5186C76.8984 20.3684 76.673 19.4796 76.1644 18.8522C75.6565 18.2248 74.9791 17.9111 74.1328 17.9111C73.2858 17.9111 72.6084 18.2248 72.1004 18.8522C71.5925 19.4273 71.3665 20.4207 71.3665 21.7278Z" fill="white"/>
<path d="M81.7529 27.7924V11.1665H88.0753C90.2771 11.1665 91.9139 11.5325 93.0434 12.3167C94.1723 13.101 94.7367 14.2512 94.7367 15.7151C94.7367 16.5516 94.5107 17.2313 94.0593 17.8587C93.6079 18.4861 92.9869 18.9566 92.1965 19.2181C93.0993 19.4272 93.8332 19.8454 94.3977 20.5251C94.9627 21.2048 95.1881 21.989 95.1881 22.9301C95.1881 24.5509 94.6237 25.7534 93.5513 26.5899C92.4225 27.4264 90.8981 27.8447 88.8092 27.8447H81.7529V27.7924ZM85.4792 18.1201H88.2448C90.1076 18.0678 91.0676 17.3881 91.0676 16.0288C91.0676 15.2969 90.8416 14.7217 90.3337 14.408C89.8822 14.0943 89.0918 13.8852 88.0753 13.8852H85.4792V18.1201ZM85.4792 20.5774V25.0737H88.6404C89.4867 25.0737 90.2206 24.8646 90.672 24.4986C91.1806 24.1327 91.406 23.5575 91.406 22.8778C91.406 21.3616 90.559 20.5774 88.8658 20.5774H85.4792Z" fill="white"/>
<path d="M104.277 27.7925C104.107 27.4788 103.994 27.1128 103.938 26.6945C103.091 27.5834 101.962 28.0539 100.551 28.0539C99.2527 28.0539 98.1797 27.6879 97.2769 27.0082C96.4299 26.3285 95.9785 25.4398 95.9785 24.3418C95.9785 23.0348 96.4864 22.0414 97.5588 21.3094C98.6318 20.5774 100.099 20.2638 102.131 20.2638H103.769V19.5318C103.769 18.9567 103.599 18.4862 103.317 18.1725C102.978 17.8065 102.526 17.6497 101.793 17.6497C101.172 17.6497 100.72 17.8065 100.382 18.0679C100.043 18.3293 99.8736 18.6953 99.8736 19.1658H96.3169C96.3169 18.4339 96.5429 17.8065 97.0509 17.1791C97.5023 16.5517 98.1797 16.0811 99.0832 15.7675C99.9302 15.4015 100.946 15.2446 102.018 15.2446C103.656 15.2446 104.954 15.6106 105.913 16.3948C106.873 17.1791 107.381 18.2247 107.381 19.6364V25.0215C107.381 26.1717 107.551 27.0605 107.889 27.6879V27.897H104.277V27.7925ZM101.341 25.492C101.849 25.492 102.357 25.3875 102.809 25.1783C103.26 24.9693 103.599 24.6555 103.825 24.2896V22.1459H102.47C100.663 22.1459 99.7041 22.7211 99.5911 23.8713V24.0804C99.5911 24.4987 99.7606 24.8123 100.043 25.0738C100.382 25.3875 100.776 25.492 101.341 25.492Z" fill="white"/>
<path d="M112.01 15.4015L112.123 16.8132C113.083 15.7152 114.381 15.1401 115.961 15.1401C117.373 15.1401 118.445 15.5061 119.123 16.2903C119.8 17.0746 120.196 18.2248 120.196 19.741V27.7402H116.639V19.8979C116.639 19.2182 116.47 18.6954 116.131 18.3817C115.793 18.0679 115.228 17.9111 114.494 17.9111C113.478 17.9111 112.744 18.3294 112.236 19.1136V27.8449H108.68V15.4015H112.01Z" fill="white"/>
<path d="M126.234 22.8257L124.936 24.0282V27.7926H121.38V10.2256H124.936V19.9502L125.613 19.1136L129.057 15.4016H133.347L128.493 20.5776L133.742 27.7926H129.622L126.234 22.8257Z" fill="white"/>
<path d="M134.421 26.1716C134.421 25.6489 134.59 25.2306 134.985 24.8646C135.38 24.5509 135.832 24.394 136.397 24.394C136.961 24.394 137.469 24.5509 137.864 24.8646C138.26 25.1783 138.428 25.5966 138.428 26.1716C138.428 26.6945 138.26 27.1128 137.864 27.4264C137.469 27.7401 137.018 27.897 136.397 27.897C135.832 27.897 135.324 27.7401 134.929 27.4264C134.646 27.1128 134.421 26.6945 134.421 26.1716Z" fill="white"/>
<path d="M139.501 12.2121C139.501 11.7416 139.67 11.3233 140.065 11.0096C140.404 10.6959 140.912 10.5391 141.533 10.5391C142.154 10.5391 142.606 10.6959 143.001 11.0096C143.34 11.3233 143.566 11.7416 143.566 12.2121C143.566 12.7349 143.396 13.1532 143.001 13.4669C142.662 13.7806 142.154 13.9374 141.533 13.9374C140.912 13.9374 140.461 13.7806 140.065 13.4669C139.67 13.1532 139.501 12.7349 139.501 12.2121ZM143.283 27.7924H139.727V15.4013H143.283V27.7924Z" fill="white"/>
<path d="M144.525 21.5186C144.525 20.3161 144.807 19.2182 145.315 18.2248C145.824 17.2837 146.557 16.4995 147.517 15.9767C148.476 15.4538 149.606 15.1924 150.848 15.1924C152.654 15.1924 154.121 15.7152 155.251 16.7086C156.38 17.702 157 19.1136 157.17 20.8912V21.7278C157.17 23.61 156.606 25.1262 155.476 26.2764C154.347 27.4266 152.823 28.0017 150.848 28.0017C148.928 28.0017 147.404 27.4266 146.219 26.2764C145.09 25.1262 144.469 23.5577 144.469 21.6232V21.5186H144.525ZM148.081 21.7278C148.081 22.878 148.307 23.819 148.815 24.4465C149.267 25.0739 150.001 25.3875 150.848 25.3875C151.694 25.3875 152.371 25.0739 152.879 24.4465C153.388 23.819 153.613 22.8257 153.613 21.5186C153.613 20.3684 153.388 19.4796 152.879 18.8522C152.371 18.2248 151.694 17.9111 150.848 17.9111C150.001 17.9111 149.323 18.2248 148.815 18.8522C148.307 19.4273 148.081 20.4207 148.081 21.7278Z" fill="white"/>
<path d="M159.935 10.8006H158.919V13.467H158.355V10.8006H157.339V10.3823H159.879V10.8006H159.935Z" fill="white"/>
<path d="M161.346 10.3823L162.306 12.735L163.266 10.3823H164V13.4147H163.435V12.3691L163.492 11.062L162.532 13.4147H162.137L161.177 11.062L161.233 12.3691V13.4147H160.669V10.3823H161.346Z" fill="white"/>
<path d="M2.8366 9.96391V11.1664H1.53825V9.96391H2.8366ZM19.8844 9.96391V11.1664H18.586V9.96391H19.8844ZM2.8366 25.7533V26.9558H1.53825V25.7533H2.8366ZM14.8039 8.5C14.5216 8.5 14.2959 8.60457 14.07 8.76142L12.2637 10.4345L10.175 12.3689L8.48156 13.9374C8.25573 14.1466 8.02996 14.1988 7.74774 14.1988C7.46546 14.1988 7.23969 14.0943 7.01386 13.9374C6.61869 13.5714 6.61869 12.944 7.01386 12.5781L9.77987 10.0162C10.1186 9.65022 10.0622 9.12739 9.72343 8.76142C9.5541 8.60457 9.27182 8.5 8.98961 8.5C8.70733 8.5 8.48156 8.60457 8.25573 8.76142L6.44937 10.4345C4.58653 12.2121 5.20748 12.8395 4.92523 13.1009C4.69943 13.31 3.68334 13.1009 2.10275 14.5125L0.296361 16.1856C-0.0987869 16.5515 -0.0987869 17.179 0.296361 17.5449C0.465709 17.7018 0.747956 17.8063 1.0302 17.8063C1.25601 17.8063 1.53825 17.7018 1.7076 17.5449L2.78015 16.5515L4.41718 15.0353C4.64298 14.8262 4.86878 14.7739 5.15103 14.7739C5.43328 14.7739 5.65908 14.8785 5.88487 15.0353C6.28002 15.4013 6.28002 16.0287 5.88487 16.3947L4.19138 17.9632L3.51399 18.5905L2.0463 19.9499L0.296361 21.5707C-0.0987869 21.9367 -0.0987869 22.5641 0.296361 22.9301C0.578609 23.0346 0.804406 23.1391 1.08666 23.1391C1.3689 23.1391 1.5947 23.0346 1.8205 22.8778L3.62689 21.2047L5.09458 19.8454C5.09458 19.8454 5.77197 19.218 6.56227 18.486C8.42512 16.7607 8.02996 16.2378 8.31223 15.9764C8.59445 15.715 9.27182 15.9764 10.6266 14.7216C11.6992 13.7283 13.8443 11.7415 13.8443 11.7415L15.5942 10.1208C15.9894 9.75479 15.9894 9.12739 15.5942 8.76142C15.3684 8.60457 15.0861 8.5 14.8039 8.5ZM4.13493 8.76142H0.183461V12.4212H4.13493V8.76142ZM21.2392 8.76142H17.2877V12.4212H21.2392V8.76142ZM15.5942 13.0486C15.312 13.0486 15.0861 13.1531 14.8604 13.31C14.8039 13.3623 13.054 14.9831 11.0218 16.8653C10.6266 17.2312 10.6266 17.8063 11.0783 18.1723C11.304 18.3292 11.5299 18.4337 11.8121 18.4337C12.0943 18.4337 12.3201 18.3292 12.546 18.1723C14.5781 16.2901 16.3281 14.6694 16.3845 14.6171C16.7797 14.2511 16.7797 13.676 16.3845 13.31C16.1022 13.1531 15.82 13.0486 15.5942 13.0486ZM20.4488 13.7283C20.1666 13.7283 19.9409 13.8328 19.715 13.9897L17.9651 15.6105C17.9651 15.6105 15.82 17.5972 14.7475 18.5905C13.3927 19.8454 13.6185 20.525 13.3927 20.7342C13.1669 20.9433 12.6024 20.5773 10.6831 22.3549C9.89283 23.0869 9.21538 23.7143 9.21538 23.7143L7.74774 25.0736L5.94132 26.7467C5.54618 27.1127 5.54618 27.74 5.94132 28.106C6.16712 28.2629 6.39292 28.3674 6.67514 28.3674C6.95741 28.3674 7.18319 28.2629 7.40902 28.106L9.15894 26.4853L10.6266 25.1259L11.304 24.4985L12.9975 22.9301C13.2233 22.7209 13.4491 22.6686 13.7314 22.6686C14.0136 22.6686 14.2394 22.7732 14.4652 22.9301C14.8604 23.296 14.8604 23.8711 14.4652 24.2894L12.8282 25.8056L11.6992 26.799C11.304 27.165 11.304 27.74 11.6992 28.106C11.925 28.2629 12.1508 28.3674 12.433 28.3674C12.7153 28.3674 12.9411 28.2629 13.1669 28.106L14.9733 26.433C16.5538 24.9691 16.2716 24.028 16.4974 23.8188C16.7797 23.5574 17.4571 24.1326 19.3763 22.3549L21.1827 20.6819C21.5779 20.3159 21.5779 19.6885 21.1827 19.3225C21.0134 19.1657 20.7311 19.0611 20.4488 19.0611C20.2231 19.0611 19.9973 19.1134 19.8279 19.2702L17.0619 21.8321C16.8926 21.9889 16.6103 22.0935 16.3845 22.0935C16.1022 22.0935 15.8765 21.9889 15.6506 21.8321C15.2555 21.4661 15.2555 20.8387 15.6506 20.4727L17.3442 18.9042L19.4328 16.9698L21.2392 15.2968C21.6343 14.9308 21.6343 14.3034 21.2392 13.9374C20.9569 13.8328 20.7311 13.7283 20.4488 13.7283ZM9.66699 18.5383C9.44122 18.5383 9.15894 18.6429 8.98961 18.7997C6.90097 20.7342 5.09458 22.4072 4.98168 22.5118C4.58653 22.8778 4.58653 23.4529 4.98168 23.8188C5.15103 23.9757 5.43328 24.0803 5.71553 24.0803C5.99777 24.0803 6.22357 23.9757 6.44937 23.8188C6.56227 23.7143 8.36868 22.0412 10.4573 20.1067C10.796 19.7408 10.796 19.1657 10.4573 18.7997C10.175 18.6429 9.94927 18.5383 9.66699 18.5383ZM20.336 23.5574C20.0537 23.5574 19.8279 23.662 19.6021 23.8188C19.4328 23.9757 16.8361 26.3807 16.7232 26.4853C16.3281 26.8512 16.3281 27.4263 16.7232 27.7923C16.8926 27.9492 17.1748 28.0537 17.4571 28.0537C17.7393 28.0537 17.9651 27.9492 18.1909 27.7923C18.4732 27.5309 21.0134 25.2305 21.0698 25.1259C21.4649 24.7599 21.4649 24.1848 21.0698 23.8188C20.844 23.662 20.5618 23.5574 20.336 23.5574ZM4.13493 24.5508H0.183461V28.2106H4.13493V24.5508Z" fill="white"/>
</svg>
